<?xml version="1.0" encoding="UTF-8" standalone="no"?>
<!DOCTYPE svg PUBLIC "-//W3C//DTD SVG 1.1//EN" "http://www.w3.org/Graphics/SVG/1.1/DTD/svg11.dtd">
<svg version="1.1" xmlns="http://www.w3.org/2000/svg" xmlns:xlink="http://www.w3.org/1999/xlink" preserveAspectRatio="xMidYMid meet" viewBox="116.715273174657 120.53526744314664 381.5813780319393 182.58360284173912" width="378.58" height="181.58"><defs><path d="M470.18 245.97L398.29 165.17L271.57 262.44L154.06 165.17" id="a8uHLKVYG"></path><path d="M441.92 165.17C441.92 189.25 422.37 208.8 398.29 208.8C374.2 208.8 354.65 189.25 354.65 165.17C354.65 141.09 374.2 121.54 398.29 121.54C422.37 121.54 441.92 141.09 441.92 165.17Z" id="ee5auolkK"></path><path d="M318.47 257.08C318.47 282.49 297.84 303.12 272.43 303.12C247.02 303.12 226.39 282.49 226.39 257.08C226.39 231.67 247.02 211.04 272.43 211.04C297.84 211.04 318.47 231.67 318.47 257.08Z" id="f5KPKwl7I"></path><path d="M313.5 257.08C313.5 279.75 295.1 298.15 272.43 298.15C249.77 298.15 231.36 279.75 231.36 257.08C231.36 234.41 249.77 216.01 272.43 216.01C295.1 216.01 313.5 234.41 313.5 257.08Z" id="flc1g3GIr"></path><path d="M192 165.17C192 185.94 175.14 202.81 154.36 202.81C133.58 202.81 116.72 185.94 116.72 165.17C116.72 144.39 133.58 127.52 154.36 127.52C175.14 127.52 192 144.39 192 165.17Z" id="b1a02IB7Kn"></path><path d="M187.94 165.17C187.94 183.7 172.89 198.75 154.36 198.75C135.83 198.75 120.78 183.7 120.78 165.17C120.78 146.63 135.83 131.59 154.36 131.59C172.89 131.59 187.94 146.63 187.94 165.17Z" id="a1FZLxtUT"></path><path d="M174.56 165.17C174.56 176.48 165.37 185.67 154.06 185.67C142.74 185.67 133.56 176.48 133.56 165.17C133.56 153.85 142.74 144.67 154.06 144.67C165.37 144.67 174.56 153.85 174.56 165.17Z" id="a31se8OjaY"></path><path d="M410.84 160.55L423.4 185.67L398.29 185.67L373.17 185.67L385.73 160.55L398.29 135.44L410.84 160.55Z" id="a5MR6857iB"></path><path d="M495.3 247.27C495.3 261.13 484.04 272.39 470.18 272.39C456.32 272.39 445.07 261.13 445.07 247.27C445.07 233.41 456.32 222.16 470.18 222.16C484.04 222.16 495.3 233.41 495.3 247.27Z" id="auJoJ5DFr"></path><path d="M490.68 246.98C490.68 258.29 481.5 267.48 470.18 267.48C458.87 267.48 449.68 258.29 449.68 246.98C449.68 235.66 458.87 226.48 470.18 226.48C481.5 226.48 490.68 235.66 490.68 246.98Z" id="e1j5gONTfM"></path></defs><g><g><g><use xlink:href="#a8uHLKVYG" opacity="1" fill-opacity="0" stroke="#4a4a4a" stroke-width="9" stroke-opacity="1"></use></g></g><g><use xlink:href="#ee5auolkK" opacity="1" fill="#4a4a4a" fill-opacity="1"></use><g><use xlink:href="#ee5auolkK" opacity="1" fill-opacity="0" stroke="#4a4a4a" stroke-width="0" stroke-opacity="1"></use></g></g><g><g><use xlink:href="#f5KPKwl7I" opacity="1" fill="#4a4a4a" fill-opacity="1"></use><g><use xlink:href="#f5KPKwl7I" opacity="1" fill-opacity="0" stroke="#4a4a4a" stroke-width="0" stroke-opacity="1"></use></g></g><g><use xlink:href="#flc1g3GIr" opacity="1" fill="#ff7700" fill-opacity="1"></use><g><use xlink:href="#flc1g3GIr" opacity="1" fill-opacity="0" stroke="#4a4a4a" stroke-width="0" stroke-opacity="1"></use></g></g></g><g><g><use xlink:href="#b1a02IB7Kn" opacity="1" fill="#4a4a4a" fill-opacity="1"></use><g><use xlink:href="#b1a02IB7Kn" opacity="1" fill-opacity="0" stroke="#4a4a4a" stroke-width="0" stroke-opacity="1"></use></g></g><g><use xlink:href="#a1FZLxtUT" opacity="1" fill="#ff7700" fill-opacity="1"></use><g><use xlink:href="#a1FZLxtUT" opacity="1" fill-opacity="0" stroke="#4a4a4a" stroke-width="0" stroke-opacity="1"></use></g></g></g><g><use xlink:href="#a31se8OjaY" opacity="1" fill="#4a4a4a" fill-opacity="1"></use></g><g><use xlink:href="#a5MR6857iB" opacity="1" fill="#4a4a4a" fill-opacity="1"></use><g><use xlink:href="#a5MR6857iB" opacity="1" fill-opacity="0" stroke="#ff7700" stroke-width="5" stroke-opacity="1"></use></g></g><g><use xlink:href="#auJoJ5DFr" opacity="1" fill="#4a4a4a" fill-opacity="1"></use><g><use xlink:href="#auJoJ5DFr" opacity="1" fill-opacity="0" stroke="#4a4a4a" stroke-width="0" stroke-opacity="1"></use></g></g><g><use xlink:href="#e1j5gONTfM" opacity="1" fill="#ff7700" fill-opacity="1"></use><g><use xlink:href="#e1j5gONTfM" opacity="1" fill-opacity="0" stroke="#4a4a4a" stroke-width="0" stroke-opacity="1"></use></g></g></g></svg>