<?xml version="1.0" encoding="UTF-8" standalone="no"?>
<!DOCTYPE svg PUBLIC "-//W3C//DTD SVG 1.1//EN" "http://www.w3.org/Graphics/SVG/1.1/DTD/svg11.dtd">
<svg version="1.1" xmlns="http://www.w3.org/2000/svg" xmlns:xlink="http://www.w3.org/1999/xlink" preserveAspectRatio="xMidYMid meet" viewBox="103.57589233417373 63.49776309170292 122.2629002382268 121.34162919816217" width="122" height="122"><defs><path d="M203.78 150.08L192.9 96.44L147.32 153.78L124.36 96.44" id="dLtg4YMaw"></path><path d="M146.6 96.44C146.6 108.31 136.96 117.95 125.09 117.95C113.21 117.95 103.58 108.31 103.58 96.44C103.58 84.57 113.21 74.93 125.09 74.93C136.96 74.93 146.6 84.57 146.6 96.44Z" id="a1wJixvSUR"></path><path d="M144.27 96.44C144.27 107.03 135.68 115.63 125.09 115.63C114.5 115.63 105.9 107.03 105.9 96.44C105.9 85.85 114.5 77.25 125.09 77.25C135.68 77.25 144.27 85.85 144.27 96.44Z" id="a94xVEgts"></path><path d="M178.43 154.38C178.43 171.19 164.79 184.84 147.98 184.84C131.16 184.84 117.52 171.19 117.52 154.38C117.52 137.57 131.16 123.92 147.98 123.92C164.79 123.92 178.43 137.57 178.43 154.38Z" id="a1MNxFDr2b"></path><path d="M175.15 154.38C175.15 169.38 162.97 181.55 147.98 181.55C132.98 181.55 120.8 169.38 120.8 154.38C120.8 139.39 132.98 127.21 147.98 127.21C162.97 127.21 175.15 139.39 175.15 154.38Z" id="ek56CYY2X"></path><path d="M164.32 154.38C164.32 163.54 156.89 170.97 147.73 170.97C138.58 170.97 131.14 163.54 131.14 154.38C131.14 145.23 138.58 137.79 147.73 137.79C156.89 137.79 164.32 145.23 164.32 154.38Z" id="a8BvLig2F"></path><path d="M225.84 96.44C225.84 114.62 211.08 129.38 192.9 129.38C174.72 129.38 159.96 114.62 159.96 96.44C159.96 78.26 174.72 63.5 192.9 63.5C211.08 63.5 225.84 78.26 225.84 96.44Z" id="a4URkSbvsF"></path><path d="M202.38 92.96L211.86 111.91L192.9 111.91L173.94 111.91L183.42 92.96L192.9 74L202.38 92.96Z" id="ceIkFOm9B"></path><path d="M217.93 151.72C217.93 159.52 211.59 165.86 203.78 165.86C195.97 165.86 189.63 159.52 189.63 151.72C189.63 143.91 195.97 137.57 203.78 137.57C211.59 137.57 217.93 143.91 217.93 151.72Z" id="f38iKDE3Pf"></path><path d="M215.33 151.55C215.33 157.92 210.15 163.1 203.78 163.1C197.41 163.1 192.23 157.92 192.23 151.55C192.23 145.17 197.41 140 203.78 140C210.15 140 215.33 145.17 215.33 151.55Z" id="f5UlB6cUkf"></path></defs><g><g><g><use xlink:href="#dLtg4YMaw" opacity="1" fill-opacity="0" stroke="#4a4a4a" stroke-width="4" stroke-opacity="1"></use></g></g><g><g><use xlink:href="#a1wJixvSUR" opacity="1" fill="#4a4a4a" fill-opacity="1"></use><g><use xlink:href="#a1wJixvSUR" opacity="1" fill-opacity="0" stroke="#4a4a4a" stroke-width="0" stroke-opacity="1"></use></g></g><g><use xlink:href="#a94xVEgts" opacity="1" fill="#ff7700" fill-opacity="1"></use><g><use xlink:href="#a94xVEgts" opacity="1" fill-opacity="0" stroke="#4a4a4a" stroke-width="0" stroke-opacity="1"></use></g></g></g><g><g><use xlink:href="#a1MNxFDr2b" opacity="1" fill="#4a4a4a" fill-opacity="1"></use><g><use xlink:href="#a1MNxFDr2b" opacity="1" fill-opacity="0" stroke="#4a4a4a" stroke-width="0" stroke-opacity="1"></use></g></g><g><use xlink:href="#ek56CYY2X" opacity="1" fill="#ff7700" fill-opacity="1"></use><g><use xlink:href="#ek56CYY2X" opacity="1" fill-opacity="0" stroke="#4a4a4a" stroke-width="0" stroke-opacity="1"></use></g></g><g><use xlink:href="#a8BvLig2F" opacity="1" fill="#4a4a4a" fill-opacity="1"></use></g></g><g><g><use xlink:href="#a4URkSbvsF" opacity="1" fill="#4a4a4a" fill-opacity="1"></use><g><use xlink:href="#a4URkSbvsF" opacity="1" fill-opacity="0" stroke="#4a4a4a" stroke-width="0" stroke-opacity="1"></use></g></g><g><use xlink:href="#ceIkFOm9B" opacity="1" fill="#4a4a4a" fill-opacity="1"></use><g><use xlink:href="#ceIkFOm9B" opacity="1" fill-opacity="0" stroke="#ff7700" stroke-width="5" stroke-opacity="1"></use></g></g></g><g><g><use xlink:href="#f38iKDE3Pf" opacity="1" fill="#4a4a4a" fill-opacity="1"></use><g><use xlink:href="#f38iKDE3Pf" opacity="1" fill-opacity="0" stroke="#4a4a4a" stroke-width="0" stroke-opacity="1"></use></g></g><g><use xlink:href="#f5UlB6cUkf" opacity="1" fill="#ff7700" fill-opacity="1"></use><g><use xlink:href="#f5UlB6cUkf" opacity="1" fill-opacity="0" stroke="#4a4a4a" stroke-width="0" stroke-opacity="1"></use></g></g></g></g></svg>